<svg id="Layer_1" data-name="Layer 1" xmlns="http://www.w3.org/2000/svg" viewBox="0 0 144.03 143.49"><defs><style>.cls-1{fill:#fff;}</style></defs><path class="cls-1" d="M172.1,99.93c-.49,8.31-.84,16.63-1.58,24.91a12,12,0,0,1-2.59,6.2c-10.8,12.94-22.31,25.22-35.59,35.67a14.64,14.64,0,0,1-7.64,3.14c-11.58.64-23.18.94-34.78,1.06a118.64,118.64,0,0,1-15.63-1.08,12.62,12.62,0,0,1-6-2.46,269.25,269.25,0,0,1-34.23-33.3,20.92,20.92,0,0,1-5.35-13.14,320,320,0,0,1,.44-47.26C29.43,70.56,31,68.18,33,66c10.78-12.24,21.81-24.25,34.73-34.3a15.21,15.21,0,0,1,7.42-2.95A252,252,0,0,1,117.83,28a53.38,53.38,0,0,1,7.92.76,14.56,14.56,0,0,1,5.94,2.58,264.74,264.74,0,0,1,36.22,35.81,11.69,11.69,0,0,1,2.78,7.26C171.07,82.92,171.61,91.41,172.1,99.93ZM99.69,38.76c0,.3,0-.29,0,0-5.93,0-11.87.39-17.8.46a16.29,16.29,0,0,0-10.84,4.22C60.92,52.2,51.31,61.45,43,72a11.9,11.9,0,0,0-2.57,5.67,199.58,199.58,0,0,0-.06,43,9.42,9.42,0,0,0,1.75,4.62A192.43,192.43,0,0,0,72.82,156a11.41,11.41,0,0,0,5.46,2.38,191.89,191.89,0,0,0,42.92.14,10.46,10.46,0,0,0,5.06-2,185.31,185.31,0,0,0,30.65-30.42,11.68,11.68,0,0,0,2.51-6.48c.37-12.29.55-24.59.42-36.88,0-3.23-.47-7.15-2.3-9.57A172.38,172.38,0,0,0,126,41.42a8.43,8.43,0,0,0-4.34-1.66C114.36,39.16,107,39.22,99.69,38.76Z" transform="translate(-28.07 -27.42)"/><path class="cls-1" d="M55.36,67.33,66.12,88.65c.63-1.39,1.06-2.22,1.4-3.1,4.69-12.4,9.43-24.79,14-37.24.79-2.14,1.87-2.84,4-2.79,3,.06,6-.16,9-.34,1.48-.1,2.17.42,2.08,1.94,0,1,0,2,0,2.92v103.2c-4.37,0-8.34.07-12.3-.08-.59,0-1.34-1-1.64-1.75a6.67,6.67,0,0,1-.07-2.37V82.93L82,82.78,68.33,117.07l-.94,0-9.13-16.75-.95.19c.51,11.24,1,22.48,1.54,34.12a11.29,11.29,0,0,1-1.69-1.21c-3.27-3.6-6.57-7.19-9.73-10.89a4.9,4.9,0,0,1-1-2.91c-.11-13.27-.2-26.55-.1-39.82a8.21,8.21,0,0,1,2-4.42C50.36,72.71,52.71,70.3,55.36,67.33Z" transform="translate(-28.07 -27.42)"/><path class="cls-1" d="M154,88.71c-3.66,0-7,.11-10.35-.09a2.6,2.6,0,0,1-1.65-2c.38-3.59-1.4-6-3.77-8.33-6.08-5.94-12-12-18.09-18-.67-.67-1.45-1.22-2.66-2.22v82.32a13.41,13.41,0,0,0,2-1.35c7-7,14.16-13.88,20.91-21.13,1.43-1.54,1.37-4.46,2.15-7.28-2.35,0-3.83-.06-5.3,0s-2.27-.48-2.22-2.13c.09-2.57.06-5.14,0-7.71,0-1.46.59-2.07,2-2.06q7.58,0,15.15,0c1.49,0,2,.6,1.93,2.1-.25,6-.29,12-.68,18a8.26,8.26,0,0,1-1.87,4.53,235,235,0,0,1-28.26,28,6.76,6.76,0,0,1-3.56,1.39c-4.59.35-9.2.37-13.79.72-2.25.18-2.93-.55-2.91-2.77.1-9.66,0-19.32,0-29q0-36.69,0-73.36c0-3.47.07-3.52,3.61-3.32,4.33.25,8.68.4,13,.82a7,7,0,0,1,4,1.62q14,13.73,27.82,27.71a8.3,8.3,0,0,1,1.94,4.46C153.93,82.58,153.86,85.43,154,88.71Z" transform="translate(-28.07 -27.42)"/></svg>